<svg width="51" height="51" viewBox="0 0 51 51" fill="none" xmlns="http://www.w3.org/2000/svg">
<g clip-path="url(#clip0_18_1273)">
<path d="M8.29507 -0.0519098C8.44948 -0.0525122 8.60388 -0.0532873 8.75829 -0.0542193C9.18099 -0.0562636 9.60366 -0.0558336 10.0264 -0.0549802C10.4829 -0.054488 10.9394 -0.0562853 11.3959 -0.0577767C12.2896 -0.0603148 13.1834 -0.0606737 14.0771 -0.0602071C14.8037 -0.0598517 15.5303 -0.0602009 16.257 -0.0610487C16.3604 -0.0611673 16.4639 -0.0612859 16.5705 -0.061408C16.7808 -0.0616494 16.991 -0.0618913 17.2012 -0.0621337C19.1722 -0.0642998 21.1431 -0.0638697 23.114 -0.0626547C24.9161 -0.061625 26.7181 -0.0638668 28.5202 -0.0676547C30.3716 -0.0715164 32.223 -0.0731598 34.0744 -0.0724114C35.1134 -0.0720306 36.1524 -0.0725245 37.1914 -0.0753428C38.076 -0.077718 38.9605 -0.0779942 39.8451 -0.0755838C40.2961 -0.0744118 40.7471 -0.0741882 41.1982 -0.0765804C41.6117 -0.0787478 42.0251 -0.0781208 42.4386 -0.075333C42.5876 -0.0748067 42.7366 -0.0752737 42.8856 -0.0768741C43.9217 -0.0872244 44.8135 0.0667969 45.6205 0.771036C45.7785 0.936008 45.8987 1.10129 46.0195 1.29495C46.0759 1.38325 46.0759 1.38325 46.1333 1.47333C46.4271 2.02542 46.4278 2.4663 46.3866 3.08264C46.2722 4.89456 46.6467 6.21447 47.5078 7.80769C47.5571 7.89952 47.6064 7.99134 47.6571 8.08595C48.1204 8.94411 48.602 9.7916 49.0904 10.6357C50.7971 13.6021 51.7067 16.4613 50.9111 19.9087C50.5223 21.1434 49.7426 22.0956 48.5969 22.6985C48.2111 22.8895 47.9638 22.9348 47.5137 23.0098C47.5137 29.9456 47.5137 36.8814 47.5137 44.0274C47.941 44.0274 48.3683 44.0274 48.8086 44.0274C49.6549 44.2724 50.2851 44.7542 50.7111 45.5189C50.9901 46.0993 51.06 46.5861 51.0564 47.2258C51.057 47.3184 51.0577 47.411 51.0583 47.5064C51.059 47.7006 51.0587 47.8948 51.0574 48.089C51.056 48.3859 51.0594 48.6825 51.0632 48.9794C51.0633 49.1689 51.0631 49.3584 51.0626 49.5479C51.064 49.6362 51.0653 49.7245 51.0667 49.8155C51.0654 49.8983 51.0642 49.9811 51.0629 50.0665C51.0627 50.1749 51.0627 50.1749 51.0626 50.2855C50.9626 50.6314 50.7802 50.7762 50.502 51C50.2026 51.049 49.96 51.0671 49.6611 51.0627C49.5763 51.0634 49.4914 51.0641 49.404 51.0649C49.1183 51.0667 48.8328 51.065 48.5471 51.0633C48.3407 51.0638 48.1344 51.0646 47.9281 51.0656C47.36 51.0677 46.792 51.0667 46.224 51.0651C45.6118 51.064 44.9996 51.0657 44.3874 51.0671C43.2571 51.0692 42.1268 51.069 40.9964 51.0677C39.9523 51.0664 38.9081 51.0661 37.864 51.0667C37.7602 51.0667 37.7602 51.0667 37.6543 51.0668C37.3733 51.0669 37.0923 51.0671 36.8114 51.0673C34.1749 51.0688 31.5384 51.0674 28.9019 51.0647C26.5587 51.0624 24.2155 51.0626 21.8722 51.065C19.2406 51.0676 16.609 51.0687 13.9774 51.0671C13.6969 51.067 13.4164 51.0668 13.136 51.0667C13.0324 51.0666 13.0324 51.0666 12.9267 51.0666C11.8832 51.066 10.8396 51.0667 9.796 51.0679C8.6096 51.0693 7.42321 51.0689 6.23681 51.0663C5.63113 51.065 5.02547 51.0645 4.41979 51.0661C3.86582 51.0676 3.31191 51.0668 2.75794 51.0641C2.55706 51.0636 2.35617 51.0639 2.15528 51.0651C1.88308 51.0666 1.61106 51.065 1.33887 51.0627C1.2601 51.0639 1.18132 51.065 1.10016 51.0662C0.697122 51.0593 0.518658 51.0166 0.200467 50.7605C-0.00354764 50.4974 -0.0628528 50.3962 -0.0660244 50.0712C-0.0679159 49.9894 -0.0698073 49.9075 -0.071756 49.8232C-0.0710604 49.7358 -0.0703647 49.6484 -0.0696479 49.5584C-0.0703607 49.4669 -0.0710734 49.3754 -0.0718077 49.281C-0.072582 49.0874 -0.072084 48.8937 -0.0704018 48.7001C-0.0685019 48.4072 -0.0723944 48.1149 -0.0768463 47.8221C-0.0819963 46.6677 -0.0288084 45.7321 0.771171 44.8272C0.935933 44.6667 1.09983 44.5473 1.29492 44.4258C1.36028 44.385 1.42564 44.3441 1.49297 44.3021C2.20393 43.9252 2.59334 44.0274 3.48633 44.0274C3.48633 37.0916 3.48633 30.1558 3.48633 23.0098C3.19049 22.944 2.89465 22.8783 2.58984 22.8106C1.33126 22.2197 0.598582 21.2313 0.0994628 19.9683C-0.748593 17.0248 0.01769 14.0566 1.43154 11.4701C1.64119 11.0938 1.85599 10.7207 2.07208 10.3481C2.55893 9.50749 3.03242 8.65989 3.49217 7.80419C3.54125 7.71355 3.59033 7.62291 3.64091 7.52952C4.39015 6.12371 4.72118 4.9078 4.60874 3.31262C4.53827 2.31048 4.67714 1.58927 5.34188 0.804681C6.20259 -0.00181056 7.17107 -0.0581348 8.29507 -0.0519098ZM6.87305 2.29104C6.44343 3.16706 6.44343 3.16706 6.57422 4.98049C19.0652 4.98049 31.5563 4.98049 44.4258 4.98049C44.5566 3.16706 44.5566 3.16706 44.127 2.29104C43.4949 1.85653 42.7289 1.95053 41.9892 1.95427C41.8412 1.95392 41.6931 1.95345 41.5451 1.95285C41.1392 1.95161 40.7333 1.95222 40.3273 1.95315C39.8892 1.95383 39.4511 1.95278 39.013 1.95196C38.1551 1.95063 37.2972 1.95092 36.4393 1.95178C35.7421 1.95246 35.0448 1.95255 34.3476 1.95223C34.2484 1.95218 34.1491 1.95213 34.0469 1.95209C33.8453 1.95199 33.6438 1.95189 33.4422 1.9518C31.5519 1.95094 29.6617 1.95192 27.7714 1.95353C26.1494 1.95486 24.5274 1.95463 22.9054 1.95325C21.0219 1.95166 19.1384 1.95103 17.2549 1.95194C17.0541 1.95204 16.8532 1.95213 16.6524 1.95223C16.5042 1.95229 16.5042 1.95229 16.353 1.95236C15.6566 1.95262 14.9601 1.95219 14.2637 1.95148C13.4151 1.95065 12.5664 1.95087 11.7177 1.95246C11.2847 1.95325 10.8517 1.95356 10.4187 1.95257C10.0223 1.95168 9.62585 1.95217 9.22943 1.95376C9.08605 1.95409 8.94268 1.95392 8.79931 1.9532C7.78424 1.92076 7.78424 1.92076 6.87305 2.29104ZM6.27539 6.97268C5.54517 8.34782 4.83647 9.73236 4.14021 11.125C3.96911 11.4669 3.79738 11.8086 3.62563 12.1502C3.51664 12.3679 3.40769 12.5856 3.29878 12.8033C3.24744 12.9053 3.19609 13.0073 3.14319 13.1124C3.09655 13.2059 3.04991 13.2995 3.00185 13.396C2.94 13.5194 2.94 13.5194 2.8769 13.6454C2.77573 13.8397 2.77573 13.8397 2.78906 14.0449C4.26826 14.0449 5.74746 14.0449 7.27149 14.0449C7.83558 12.5642 8.3788 11.0771 8.91091 9.58457C8.98436 9.37857 9.05791 9.17261 9.13157 8.96668C9.23626 8.67385 9.3405 8.38087 9.4446 8.08784C9.47662 7.99839 9.50865 7.90895 9.54164 7.81679C9.5852 7.69367 9.5852 7.69367 9.62964 7.56805C9.65525 7.49608 9.68086 7.4241 9.70725 7.34994C9.77143 7.17118 9.77143 7.17118 9.76172 6.97268C8.61123 6.97268 7.46074 6.97268 6.27539 6.97268ZM12.0527 6.97268C11.6678 7.88736 11.6678 7.88736 11.3153 8.811C11.2754 8.92163 11.2356 9.03225 11.1945 9.14623C11.1535 9.26114 11.1125 9.37604 11.0703 9.49443C11.0267 9.61585 10.9832 9.73726 10.9384 9.86235C10.8474 10.1165 10.7566 10.3707 10.666 10.625C10.5498 10.9507 10.433 11.2762 10.3159 11.6016C10.2038 11.9138 10.0923 12.2263 9.98078 12.5387C9.91776 12.7138 9.91776 12.7138 9.85347 12.8924C9.79605 13.0541 9.79605 13.0541 9.73747 13.2191C9.70358 13.3139 9.6697 13.4088 9.63478 13.5065C9.54812 13.7521 9.54812 13.7521 9.5625 14.0449C11.0746 14.0449 12.5866 14.0449 14.1445 14.0449C14.3816 13.0966 14.6158 12.153 14.8216 11.1983C14.8572 11.034 14.8572 11.034 14.8936 10.8663C14.9429 10.6384 14.9921 10.4104 15.0412 10.1824C15.1165 9.83287 15.1925 9.4835 15.2686 9.13413C15.3168 8.91118 15.3649 8.68823 15.413 8.46527C15.4357 8.3612 15.4584 8.25714 15.4818 8.14992C15.5025 8.05339 15.5231 7.95685 15.5444 7.8574C15.5627 7.77284 15.5809 7.68829 15.5998 7.60117C15.6497 7.34453 15.6497 7.34453 15.6387 6.97268C14.4553 6.97268 13.272 6.97268 12.0527 6.97268ZM17.8301 6.97268C17.593 7.92107 17.3589 8.86459 17.153 9.81933C17.1293 9.92889 17.1055 10.0384 17.0811 10.1513C17.0317 10.3793 16.9825 10.6072 16.9334 10.8352C16.8581 11.1848 16.7821 11.5341 16.706 11.8835C16.6578 12.1064 16.6097 12.3294 16.5616 12.5524C16.5389 12.6564 16.5162 12.7605 16.4928 12.8677C16.4721 12.9642 16.4515 13.0608 16.4302 13.1602C16.4028 13.2871 16.4028 13.2871 16.3749 13.4165C16.3249 13.6731 16.3249 13.6731 16.3359 14.0449C17.8809 14.0449 19.4258 14.0449 21.0176 14.0449C21.1748 12.5106 21.1748 12.5106 21.3016 10.9746C21.308 10.8867 21.3143 10.7987 21.3209 10.7082C21.3339 10.5269 21.3468 10.3456 21.3595 10.1643C21.3789 9.88877 21.399 9.6133 21.4191 9.33782C21.4319 9.15916 21.4446 8.9805 21.4573 8.80184C21.4632 8.7212 21.4691 8.64057 21.4752 8.55749C21.4805 8.48023 21.4859 8.40297 21.4914 8.32337C21.4961 8.25704 21.5008 8.19072 21.5056 8.12239C21.5208 7.73944 21.5156 7.35593 21.5156 6.97268C20.2994 6.97268 19.0832 6.97268 17.8301 6.97268ZM23.6074 6.97268C23.5187 8.12897 23.5187 8.12897 23.4304 9.28529C23.3944 9.75704 23.3584 10.2288 23.3222 10.7005C23.2929 11.0809 23.2639 11.4613 23.235 11.8417C23.2239 11.9867 23.2128 12.1317 23.2016 12.2767C23.1859 12.4801 23.1705 12.6835 23.1551 12.8869C23.1462 13.0026 23.1374 13.1182 23.1283 13.2374C23.1119 13.5062 23.1094 13.7757 23.1094 14.0449C24.6872 14.0449 26.265 14.0449 27.8906 14.0449C27.7548 11.6839 27.584 9.33001 27.3926 6.97268C26.1435 6.97268 24.8944 6.97268 23.6074 6.97268ZM29.4844 6.97268C29.5372 8.47169 29.6272 9.96533 29.7334 11.4613C29.7399 11.5548 29.7465 11.6482 29.7532 11.7445C29.7722 12.0145 29.7916 12.2844 29.8112 12.5543C29.8198 12.6761 29.8198 12.6761 29.8285 12.8003C29.8342 12.8767 29.8398 12.9531 29.8457 13.0318C29.8504 13.0978 29.8552 13.1639 29.8602 13.232C29.8888 13.5045 29.9374 13.7746 29.9824 14.0449C31.5274 14.0449 33.0723 14.0449 34.6641 14.0449C34.6021 13.5493 34.5389 13.087 34.4359 12.603C34.3975 12.4216 34.3975 12.4216 34.3583 12.2365C34.317 12.0442 34.317 12.0442 34.275 11.8481C34.2463 11.7135 34.2176 11.5789 34.189 11.4443C34.1293 11.1637 34.0693 10.8833 34.0092 10.6029C33.932 10.2432 33.8555 9.88348 33.7791 9.52368C33.7201 9.24643 33.6609 8.96924 33.6017 8.69207C33.5733 8.55936 33.545 8.42663 33.5168 8.29389C33.4775 8.10909 33.4378 7.92436 33.3981 7.73965C33.3644 7.582 33.3644 7.582 33.33 7.42117C33.2799 7.17406 33.2799 7.17406 33.1699 6.97268C31.9537 6.97268 30.7375 6.97268 29.4844 6.97268ZM35.3613 6.97268C35.4211 7.51038 35.4766 7.99603 35.5895 8.51641C35.6151 8.63535 35.6407 8.7543 35.6671 8.87685C35.6946 9.00232 35.7221 9.1278 35.7504 9.25708C35.7791 9.38931 35.8078 9.52155 35.8364 9.6538C35.896 9.92903 35.956 10.2042 36.0162 10.4793C36.0934 10.8321 36.17 11.1851 36.2463 11.5381C36.3053 11.8103 36.3644 12.0824 36.4237 12.3546C36.4658 12.548 36.5078 12.7415 36.5497 12.9349C36.5753 13.0517 36.6009 13.1684 36.6273 13.2887C36.6497 13.3917 36.6722 13.4948 36.6954 13.6009C36.746 13.8442 36.746 13.8442 36.8555 14.0449C38.3675 14.0449 39.8796 14.0449 41.4375 14.0449C41.2696 13.283 41.2696 13.283 41.0375 12.5548C40.9986 12.4475 40.9597 12.3401 40.9196 12.2295C40.878 12.1165 40.8364 12.0035 40.7935 11.887C40.7503 11.7683 40.7071 11.6496 40.6625 11.5274C40.5715 11.2776 40.4802 11.028 40.3885 10.7785C40.2717 10.4604 40.1555 10.1421 40.0396 9.8237C39.928 9.51736 39.816 9.21115 39.7041 8.90495C39.6627 8.79152 39.6212 8.6781 39.5786 8.56124C39.5198 8.40113 39.5197 8.40113 39.4597 8.23779C39.4256 8.14472 39.3915 8.05164 39.3563 7.95575C39.2286 7.6246 39.0871 7.29891 38.9473 6.97268C37.7639 6.97268 36.5805 6.97268 35.3613 6.97268ZM41.2383 6.97268C41.4354 7.74074 41.6736 8.48486 41.9445 9.22985C41.9829 9.33648 42.0214 9.44311 42.0609 9.55298C42.1417 9.7768 42.2227 10.0005 42.3038 10.2242C42.4271 10.5641 42.5498 10.9042 42.6723 11.2444C42.7513 11.4632 42.8304 11.6819 42.9095 11.9006C42.9457 12.001 42.9819 12.1013 43.0192 12.2048C43.0541 12.3009 43.089 12.397 43.125 12.496C43.1701 12.6204 43.1701 12.6204 43.2161 12.7474C43.3805 13.1824 43.5558 13.6132 43.7285 14.0449C45.2406 14.0449 46.7527 14.0449 48.3106 14.0449C48.0476 13.519 47.7846 12.9931 47.5137 12.4512C47.1779 11.7781 47.1779 11.7781 47.0159 11.4531C46.8112 11.0425 46.6063 10.632 46.4014 10.2215C46.2465 9.91117 46.0917 9.60081 45.937 9.29037C45.7563 8.92768 45.5753 8.56515 45.3943 8.20262C45.3384 8.09048 45.2826 7.97834 45.2251 7.8628C45.1739 7.76026 45.1226 7.65772 45.0698 7.55207C45.0246 7.46155 44.9795 7.37102 44.9329 7.27775C44.8406 7.07893 44.8406 7.07893 44.7246 6.97268C44.4663 6.96386 44.2106 6.9612 43.9523 6.96295C43.875 6.9631 43.7978 6.96324 43.7182 6.96338C43.4705 6.96394 43.2229 6.96519 42.9752 6.96646C42.8077 6.96696 42.6402 6.96741 42.4727 6.96782C42.0612 6.96892 41.6498 6.97064 41.2383 6.97268ZM1.99219 16.1367C1.85921 18.3841 1.85921 18.3841 2.68945 20.3203C3.21828 20.8352 3.74523 21.0345 4.46997 21.0612C5.25936 21.0365 5.81368 20.8259 6.36255 20.2519C7.06188 19.463 7.01101 18.4694 6.99133 17.4752C6.98517 17.0335 6.97901 16.5918 6.97266 16.1367C5.3291 16.1367 3.68555 16.1367 1.99219 16.1367ZM9.06445 16.1367C9.05624 16.6113 9.04802 17.0859 9.03955 17.5749C9.03592 17.7227 9.0323 17.8706 9.02856 18.0229C9.02223 18.7808 9.06579 19.3666 9.46289 20.0215C9.51631 20.1119 9.56972 20.2023 9.62476 20.2954C10.1763 20.818 10.7587 21.049 11.5173 21.0736C12.3588 21.0342 12.8083 20.7942 13.385 20.1896C13.8798 19.6406 13.9712 19.0485 13.9648 18.3254C13.9643 18.2099 13.9638 18.0943 13.9633 17.9753C13.9614 17.8308 13.9596 17.6863 13.9578 17.5375C13.9516 16.8441 13.9516 16.8441 13.9453 16.1367C12.3346 16.1367 10.7239 16.1367 9.06445 16.1367ZM16.0371 16.1367C16.0309 16.5784 16.0248 17.0202 16.0184 17.4752C16.0157 17.6127 16.013 17.7501 16.0102 17.8918C16.0033 18.9214 16.1122 19.6882 16.8406 20.4468C17.4398 20.9831 18.0007 21.0903 18.8009 21.0616C19.5073 20.9657 20.0289 20.6819 20.4697 20.1211C20.8389 19.5888 20.9428 19.149 20.9374 18.5005C20.9369 18.3764 20.9364 18.2522 20.9359 18.1243C20.9341 17.9677 20.9323 17.811 20.9304 17.6496C20.9243 16.9007 20.9243 16.9007 20.918 16.1367C19.3073 16.1367 17.6966 16.1367 16.0371 16.1367ZM23.0098 16.1367C23.0057 16.5476 23.0015 16.9585 22.9973 17.3819C22.9955 17.5098 22.9937 17.6378 22.9918 17.7696C22.9875 18.6691 23.0536 19.4781 23.6074 20.2207C24.1808 20.7814 24.6915 21.03 25.4813 21.0674C26.193 21.0469 26.7531 20.8298 27.2813 20.3487C27.8832 19.6844 28.0043 18.9829 28 18.1017C27.9997 17.998 27.9995 17.8944 27.9992 17.7875C27.9983 17.6578 27.9974 17.528 27.9965 17.3943C27.9944 16.9793 27.9924 16.5643 27.9902 16.1367C26.3467 16.1367 24.7031 16.1367 23.0098 16.1367ZM30.082 16.1367C30.0718 16.6257 30.0615 17.1147 30.0509 17.6184C30.0464 17.7706 30.0418 17.9227 30.0372 18.0795C30.029 18.8834 30.08 19.5546 30.5801 20.2207C31.2747 20.8746 31.9005 21.0672 32.8489 21.048C33.5971 20.9772 34.0196 20.6145 34.5104 20.0701C35.0199 19.2484 35.0002 18.4187 34.9816 17.4752C34.9754 17.0335 34.9692 16.5918 34.9629 16.1367C33.3522 16.1367 31.7415 16.1367 30.082 16.1367ZM37.0547 16.1367C37.0485 16.5969 37.0424 17.0571 37.036 17.5313C37.0333 17.6748 37.0306 17.8184 37.0278 17.9663C37.0216 18.9266 37.1232 19.6552 37.752 20.4199C38.5179 20.9936 39.1908 21.1108 40.1426 21.0176C40.7994 20.8261 41.2295 20.4924 41.6212 19.9379C41.892 19.4318 41.9599 18.9831 41.955 18.413C41.9545 18.2931 41.954 18.1733 41.9535 18.0498C41.9517 17.8992 41.9499 17.7487 41.948 17.5935C41.9439 17.1128 41.9398 16.6321 41.9356 16.1367C40.3249 16.1367 38.7142 16.1367 37.0547 16.1367ZM44.0273 16.1367C44.0212 16.5784 44.015 17.0202 44.0087 17.4752C44.0059 17.6127 44.0032 17.7501 44.0004 17.8918C43.9935 18.9214 44.1025 19.6882 44.8308 20.4468C45.4301 20.9831 45.9909 21.0903 46.7911 21.0616C47.4975 20.9657 48.0192 20.6819 48.46 20.1211C49.2744 18.896 49.0078 17.6355 49.0078 16.1367C47.3643 16.1367 45.7207 16.1367 44.0273 16.1367ZM7.96875 21.5156C7.9346 21.5579 7.90044 21.6001 7.86525 21.6437C7.26128 22.3205 6.43191 22.7252 5.57813 23.0098C5.57813 29.9456 5.57813 36.8814 5.57813 44.0274C18.7266 44.0274 31.875 44.0274 45.4219 44.0274C45.4219 37.0916 45.4219 30.1558 45.4219 23.0098C45.0274 22.8454 44.633 22.6811 44.2266 22.5117C43.9443 22.3169 43.689 22.1327 43.4297 21.9141C43.3311 21.836 43.2325 21.7579 43.1309 21.6775C43.0651 21.6241 42.9994 21.5707 42.9316 21.5156C42.6057 21.8513 42.4876 22.0844 42.481 22.5554C42.4821 22.6249 42.4831 22.6944 42.4842 22.766C42.4837 22.841 42.4833 22.9159 42.4828 22.9931C42.4817 23.2437 42.4834 23.4942 42.4851 23.7448C42.4849 23.9246 42.4845 24.1045 42.484 24.2843C42.4831 24.6714 42.4835 25.0584 42.4848 25.4454C42.4868 26.0573 42.4858 26.6692 42.4844 27.2812C42.4817 28.58 42.4824 29.8789 42.4834 31.1778C42.4845 32.58 42.485 33.9822 42.4817 35.3843C42.4803 35.9927 42.4809 36.6011 42.483 37.2095C42.4839 37.5878 42.4832 37.9661 42.482 38.3445C42.4818 38.52 42.4822 38.6955 42.4834 38.871C42.485 39.1105 42.4841 39.3499 42.4826 39.5895C42.4837 39.659 42.4847 39.7285 42.4858 39.8002C42.4792 40.2779 42.3705 40.5046 42.0352 40.8399C41.7741 40.9023 41.7741 40.9023 41.4708 40.9025C41.355 40.9038 41.2393 40.9051 41.12 40.9065C40.9928 40.9054 40.8655 40.9043 40.7344 40.9031C40.598 40.9037 40.4615 40.9045 40.325 40.9055C39.9496 40.9076 39.5743 40.9065 39.1989 40.905C38.7942 40.9039 38.3895 40.9056 37.9848 40.907C37.1919 40.9092 36.399 40.9087 35.606 40.9073C34.9617 40.9061 34.3174 40.906 33.6731 40.9065C33.5357 40.9066 33.5357 40.9066 33.3955 40.9067C33.2094 40.9069 33.0233 40.9071 32.8372 40.9072C31.0912 40.9087 29.3452 40.907 27.5991 40.9043C26.1001 40.9021 24.6012 40.9025 23.1022 40.9048C21.3625 40.9075 19.6228 40.9085 17.8831 40.907C17.6977 40.9068 17.5123 40.9067 17.3269 40.9065C17.19 40.9064 17.19 40.9064 17.0504 40.9063C16.4067 40.9059 15.763 40.9066 15.1193 40.9078C14.3351 40.9091 13.5509 40.9088 12.7667 40.9061C12.3664 40.9048 11.9661 40.9043 11.5658 40.9059C11.1996 40.9074 10.8335 40.9066 10.4672 40.904C10.2715 40.9031 10.0757 40.9048 9.87997 40.9065C9.76423 40.9052 9.64848 40.9039 9.52923 40.9025C9.42914 40.9025 9.32905 40.9024 9.22592 40.9023C8.86417 40.8158 8.76021 40.6513 8.56641 40.3418C8.52874 40.0768 8.51383 39.8537 8.51806 39.5895C8.51767 39.5146 8.51727 39.4396 8.51686 39.3625C8.51601 39.1118 8.51798 38.8613 8.51993 38.6107C8.51988 38.4309 8.51964 38.251 8.51924 38.0712C8.51872 37.6842 8.51943 37.2971 8.52106 36.9101C8.52356 36.2982 8.52293 35.6863 8.5218 35.0744C8.51949 33.5546 8.52133 32.0349 8.52395 30.5151C8.52593 29.3338 8.52679 28.1525 8.52425 26.9712C8.52307 26.3628 8.52424 25.7544 8.52717 25.146C8.52849 24.7677 8.52775 24.3894 8.52644 24.0111C8.52626 23.8355 8.52693 23.66 8.52851 23.4845C8.53056 23.245 8.52955 23.0056 8.52779 22.766C8.52913 22.6965 8.53046 22.627 8.53184 22.5554C8.52518 22.1623 8.47375 22.0218 8.21396 21.7177C8.13304 21.651 8.05212 21.5843 7.96875 21.5156ZM14.9414 21.5156C14.8459 21.6204 14.8459 21.6204 14.7484 21.7273C13.5215 22.9405 12.2924 23.0181 10.5586 23.1094C10.5586 28.3359 10.5586 33.5624 10.5586 38.9473C20.4199 38.9473 30.2813 38.9473 40.4414 38.9473C40.4414 33.7208 40.4414 28.4943 40.4414 23.1094C39.8169 23.0765 39.1923 23.0437 38.5488 23.0098C37.5626 22.7427 36.6667 22.2644 35.959 21.5156C35.9214 21.5591 35.8837 21.6025 35.845 21.6472C35.0717 22.4838 34.0842 22.9815 32.9411 23.0433C31.5416 23.0717 30.4919 22.8196 29.3848 21.9141C29.2834 21.8163 29.183 21.7173 29.0859 21.6153C28.7741 21.7565 28.5375 21.9302 28.2766 22.1507C27.1919 23.0113 25.9412 23.1172 24.6035 23.0098C23.6444 22.8243 22.7644 22.3513 22.1133 21.6153C21.8014 21.7565 21.5648 21.9302 21.304 22.1507C20.2078 23.0204 18.9778 23.0931 17.6309 23.0098C16.5761 22.8506 15.7125 22.2197 14.9414 21.5156ZM2.29102 46.3184C1.86139 47.1944 1.86139 47.1944 1.99219 49.0078C17.5073 49.0078 33.0225 49.0078 49.0078 49.0078C49.1386 47.1944 49.1386 47.1944 48.709 46.3184C48.2245 46.0281 47.778 45.9764 47.2247 45.982C47.1098 45.9813 47.1098 45.9813 46.9926 45.9806C46.7361 45.9795 46.4797 45.9806 46.2233 45.9816C46.0375 45.9813 45.8517 45.9808 45.6658 45.9802C45.1554 45.979 44.645 45.9796 44.1346 45.9805C43.5841 45.9812 43.0335 45.9801 42.483 45.9793C41.4045 45.978 40.3261 45.9783 39.2477 45.9791C38.3713 45.9798 37.495 45.9799 36.6186 45.9796C36.494 45.9795 36.3693 45.9795 36.2409 45.9794C35.9876 45.9793 35.7344 45.9792 35.4812 45.9791C33.1735 45.9783 30.8659 45.9792 28.5583 45.9807C26.4517 45.9822 24.3452 45.982 22.2387 45.9806C19.8719 45.979 17.5051 45.9784 15.1383 45.9793C14.886 45.9794 14.6337 45.9795 14.3814 45.9796C14.2572 45.9796 14.1331 45.9797 14.0052 45.9797C13.1297 45.98 12.2543 45.9795 11.3788 45.9788C10.3122 45.978 9.24551 45.9782 8.17884 45.9798C7.63447 45.9806 7.0901 45.9809 6.54572 45.9799C6.04755 45.979 5.5494 45.9795 5.05123 45.9811C4.87086 45.9814 4.69049 45.9813 4.51012 45.9805C4.26514 45.9796 4.02025 45.9806 3.77528 45.982C3.66998 45.9809 3.66998 45.9809 3.56255 45.9798C3.07577 45.9854 2.70965 46.0675 2.29102 46.3184Z" fill="white"/>
<path d="M30.6672 26.4525C30.7745 26.4492 30.8817 26.446 30.9921 26.4426C31.8754 26.4366 31.8754 26.4366 32.2427 26.7229C32.5148 27.0438 32.5681 27.1947 32.5894 27.5992C32.5555 27.9789 32.3711 28.1953 32.105 28.4509C31.7928 28.6368 31.563 28.6174 31.2026 28.6066C31.086 28.6039 30.9695 28.6012 30.8493 28.5984C30.7605 28.5949 30.6716 28.5915 30.5801 28.5879C30.5704 28.6934 30.5607 28.7989 30.5507 28.9076C30.476 29.5002 30.3117 30.0684 30.1544 30.6435C30.1059 30.8224 30.1059 30.8224 30.0565 31.005C29.9709 31.3201 29.8847 31.6351 29.7984 31.9501C29.7458 32.1429 29.6937 32.3358 29.6418 32.5288C29.5416 32.9008 29.4404 33.2726 29.3389 33.6442C29.308 33.759 29.2772 33.8738 29.2454 33.992C29.2159 34.0991 29.1863 34.2061 29.1558 34.3165C29.1303 34.4103 29.1047 34.5041 29.0783 34.6008C28.9532 34.9579 28.8246 35.2573 28.5177 35.4902C28.1867 35.592 27.8631 35.5899 27.5202 35.5895C27.4048 35.5905 27.4048 35.5905 27.287 35.5915C27.0328 35.5934 26.7787 35.5938 26.5245 35.594C26.3476 35.5946 26.1707 35.5953 25.9938 35.596C25.6231 35.5972 25.2524 35.5976 24.8817 35.5975C24.407 35.5974 23.9323 35.6002 23.4576 35.6036C23.0922 35.6058 22.7269 35.6062 22.3616 35.6061C22.1866 35.6063 22.0116 35.6072 21.8366 35.6088C21.5917 35.6107 21.3469 35.6101 21.102 35.6089C21.0299 35.61 20.9578 35.6112 20.8836 35.6123C20.5308 35.6079 20.3324 35.5681 20.0312 35.3787C19.7618 35.0994 19.6706 34.8149 19.5725 34.4493C19.5523 34.3795 19.5321 34.3097 19.5113 34.2379C19.4473 34.0151 19.3857 33.7918 19.3242 33.5683C19.2828 33.4234 19.2412 33.2786 19.1994 33.1337C19.0957 32.7716 18.996 32.4086 18.8982 32.0449C18.858 31.8968 18.8173 31.7489 18.7759 31.6012C18.7147 31.3826 18.6554 31.1635 18.5966 30.9443C18.578 30.8793 18.5595 30.8143 18.5404 30.7474C18.4094 30.246 18.4002 29.8818 18.5273 29.3848C18.7382 29.0901 18.8019 29.0131 19.125 28.8867C19.6257 28.8162 20.1216 28.8214 20.6258 28.8276C20.7733 28.8277 20.9209 28.8277 21.0685 28.8276C21.3771 28.8277 21.6856 28.8296 21.9941 28.8327C22.3889 28.8367 22.7836 28.8371 23.1784 28.8364C23.4829 28.8361 23.7874 28.8373 24.0918 28.839C24.2374 28.8397 24.3829 28.84 24.5285 28.8399C24.7321 28.8401 24.9356 28.8422 25.1391 28.8449C25.2548 28.8457 25.3704 28.8466 25.4896 28.8474C25.8319 28.8909 26.0201 28.9834 26.2969 29.1855C26.5525 29.5264 26.5324 29.8675 26.4961 30.2812C26.3268 30.6622 26.1823 30.8256 25.7988 30.9785C25.5656 31.0025 25.5656 31.0025 25.3056 31.0011C25.2079 31.0011 25.1102 31.0011 25.0095 31.0011C24.9048 31 24.8001 30.999 24.6922 30.998C24.5845 30.9977 24.4767 30.9974 24.3657 30.9971C24.0216 30.996 23.6776 30.9935 23.3335 30.991C23.1002 30.99 22.8668 30.989 22.6335 30.9882C22.0617 30.986 21.4898 30.9827 20.918 30.9785C20.9361 31.0469 20.9542 31.1152 20.9728 31.1856C21.0544 31.4942 21.1356 31.8029 21.2168 32.1116C21.2596 32.273 21.2596 32.273 21.3032 32.4376C21.3301 32.5403 21.3571 32.6431 21.3849 32.7489C21.4099 32.8438 21.435 32.9388 21.4608 33.0366C21.5156 33.2695 21.5156 33.2695 21.5156 33.4687C23.3893 33.4687 25.2629 33.4687 27.1934 33.4687C27.2262 33.2386 27.2591 33.0085 27.293 32.7715C27.3375 32.5762 27.3855 32.3817 27.4367 32.1882C27.4801 32.0231 27.4801 32.0231 27.5244 31.8548C27.5556 31.7379 27.5869 31.6211 27.619 31.5007C27.6675 31.3182 27.6675 31.3182 27.717 31.1321C27.7852 30.8756 27.8537 30.6193 27.9224 30.363C28.0102 30.0355 28.0969 29.7078 28.1833 29.38C28.2664 29.0657 28.3505 28.7517 28.4346 28.4377C28.4654 28.3204 28.4962 28.2032 28.528 28.0824C28.5576 27.973 28.5871 27.8636 28.6176 27.7509C28.6432 27.655 28.6688 27.5591 28.6951 27.4603C28.8184 27.1026 28.9544 26.7871 29.27 26.5669C29.7198 26.4183 30.1981 26.455 30.6672 26.4525Z" fill="white"/>
</g>
<defs>
<clipPath id="clip0_18_1273">
<rect width="51" height="51" fill="white"/>
</clipPath>
</defs>
</svg>
